<mxfile host="app.diagrams.net" modified="2022-03-12T02:41:00.188Z" agent="5.0 (Windows NT 10.0; Win64; x64) AppleWebKit/537.36 (KHTML, like Gecko) Chrome/99.0.4844.51 Safari/537.36" etag="VGxTfwhaL_AAVMSVo-EC" version="17.1.0" type="github">
  <diagram id="C5RBs43oDa-KdzZeNtuy" name="Page-1">
    <mxGraphModel dx="1695" dy="1665" grid="1" gridSize="10" guides="1" tooltips="1" connect="1" arrows="1" fold="1" page="1" pageScale="1" pageWidth="827" pageHeight="1169" math="0" shadow="0">
      <root>
        <mxCell id="WIyWlLk6GJQsqaUBKTNV-0" />
        <mxCell id="WIyWlLk6GJQsqaUBKTNV-1" parent="WIyWlLk6GJQsqaUBKTNV-0" />
        <mxCell id="BT-sb1i7F7TTi-nkxCVp-0" value="Login" style="swimlane;fontStyle=1;align=center;verticalAlign=top;childLayout=stackLayout;horizontal=1;startSize=26;horizontalStack=0;resizeParent=1;resizeParentMax=0;resizeLast=0;collapsible=1;marginBottom=0;" parent="WIyWlLk6GJQsqaUBKTNV-1" vertex="1">
          <mxGeometry x="-130" y="240" width="160" height="94" as="geometry" />
        </mxCell>
        <mxCell id="BT-sb1i7F7TTi-nkxCVp-1" value="- adminUName: String&#xa;- adminUPass: String" style="text;strokeColor=none;fillColor=none;align=left;verticalAlign=top;spacingLeft=4;spacingRight=4;overflow=hidden;rotatable=0;points=[[0,0.5],[1,0.5]];portConstraint=eastwest;" parent="BT-sb1i7F7TTi-nkxCVp-0" vertex="1">
          <mxGeometry y="26" width="160" height="34" as="geometry" />
        </mxCell>
        <mxCell id="BT-sb1i7F7TTi-nkxCVp-2" value="" style="line;strokeWidth=1;fillColor=none;align=left;verticalAlign=middle;spacingTop=-1;spacingLeft=3;spacingRight=3;rotatable=0;labelPosition=right;points=[];portConstraint=eastwest;" parent="BT-sb1i7F7TTi-nkxCVp-0" vertex="1">
          <mxGeometry y="60" width="160" height="8" as="geometry" />
        </mxCell>
        <mxCell id="BT-sb1i7F7TTi-nkxCVp-3" value="+ login(): void" style="text;strokeColor=none;fillColor=none;align=left;verticalAlign=top;spacingLeft=4;spacingRight=4;overflow=hidden;rotatable=0;points=[[0,0.5],[1,0.5]];portConstraint=eastwest;" parent="BT-sb1i7F7TTi-nkxCVp-0" vertex="1">
          <mxGeometry y="68" width="160" height="26" as="geometry" />
        </mxCell>
        <mxCell id="BT-sb1i7F7TTi-nkxCVp-12" value="Books" style="swimlane;fontStyle=1;align=center;verticalAlign=top;childLayout=stackLayout;horizontal=1;startSize=26;horizontalStack=0;resizeParent=1;resizeParentMax=0;resizeLast=0;collapsible=1;marginBottom=0;" parent="WIyWlLk6GJQsqaUBKTNV-1" vertex="1">
          <mxGeometry x="-560" y="500" width="160" height="160" as="geometry" />
        </mxCell>
        <mxCell id="BT-sb1i7F7TTi-nkxCVp-13" value="- booksColumn: String[]" style="text;strokeColor=none;fillColor=none;align=left;verticalAlign=top;spacingLeft=4;spacingRight=4;overflow=hidden;rotatable=0;points=[[0,0.5],[1,0.5]];portConstraint=eastwest;" parent="BT-sb1i7F7TTi-nkxCVp-12" vertex="1">
          <mxGeometry y="26" width="160" height="26" as="geometry" />
        </mxCell>
        <mxCell id="BT-sb1i7F7TTi-nkxCVp-14" value="" style="line;strokeWidth=1;fillColor=none;align=left;verticalAlign=middle;spacingTop=-1;spacingLeft=3;spacingRight=3;rotatable=0;labelPosition=right;points=[];portConstraint=eastwest;" parent="BT-sb1i7F7TTi-nkxCVp-12" vertex="1">
          <mxGeometry y="52" width="160" height="8" as="geometry" />
        </mxCell>
        <mxCell id="BT-sb1i7F7TTi-nkxCVp-15" value="+ ManageBooks()&#xa;+ addBook(): void&#xa;+ editBook(): void&#xa;+ removeBook(): void&#xa;+ showTable(): JPanel&#xa;+ getPanel(): JPanel" style="text;strokeColor=none;fillColor=none;align=left;verticalAlign=top;spacingLeft=4;spacingRight=4;overflow=hidden;rotatable=0;points=[[0,0.5],[1,0.5]];portConstraint=eastwest;" parent="BT-sb1i7F7TTi-nkxCVp-12" vertex="1">
          <mxGeometry y="60" width="160" height="100" as="geometry" />
        </mxCell>
        <mxCell id="BT-sb1i7F7TTi-nkxCVp-16" value="Server" style="swimlane;fontStyle=1;align=center;verticalAlign=top;childLayout=stackLayout;horizontal=1;startSize=26;horizontalStack=0;resizeParent=1;resizeParentMax=0;resizeLast=0;collapsible=1;marginBottom=0;" parent="WIyWlLk6GJQsqaUBKTNV-1" vertex="1">
          <mxGeometry x="-460" y="-60" width="160" height="100" as="geometry" />
        </mxCell>
        <mxCell id="BT-sb1i7F7TTi-nkxCVp-17" value="# con: Connection" style="text;strokeColor=none;fillColor=none;align=left;verticalAlign=top;spacingLeft=4;spacingRight=4;overflow=hidden;rotatable=0;points=[[0,0.5],[1,0.5]];portConstraint=eastwest;" parent="BT-sb1i7F7TTi-nkxCVp-16" vertex="1">
          <mxGeometry y="26" width="160" height="26" as="geometry" />
        </mxCell>
        <mxCell id="BT-sb1i7F7TTi-nkxCVp-18" value="" style="line;strokeWidth=1;fillColor=none;align=left;verticalAlign=middle;spacingTop=-1;spacingLeft=3;spacingRight=3;rotatable=0;labelPosition=right;points=[];portConstraint=eastwest;" parent="BT-sb1i7F7TTi-nkxCVp-16" vertex="1">
          <mxGeometry y="52" width="160" height="8" as="geometry" />
        </mxCell>
        <mxCell id="BT-sb1i7F7TTi-nkxCVp-19" value="+ connectToDB(): void&#xa;+ hasDatabaseSetup(): boolean" style="text;strokeColor=none;fillColor=none;align=left;verticalAlign=top;spacingLeft=4;spacingRight=4;overflow=hidden;rotatable=0;points=[[0,0.5],[1,0.5]];portConstraint=eastwest;" parent="BT-sb1i7F7TTi-nkxCVp-16" vertex="1">
          <mxGeometry y="60" width="160" height="40" as="geometry" />
        </mxCell>
        <mxCell id="BT-sb1i7F7TTi-nkxCVp-24" value="Main" style="swimlane;fontStyle=1;align=center;verticalAlign=top;childLayout=stackLayout;horizontal=1;startSize=26;horizontalStack=0;resizeParent=1;resizeParentMax=0;resizeLast=0;collapsible=1;marginBottom=0;" parent="WIyWlLk6GJQsqaUBKTNV-1" vertex="1">
          <mxGeometry x="100" y="257" width="160" height="60" as="geometry" />
        </mxCell>
        <mxCell id="BT-sb1i7F7TTi-nkxCVp-26" value="" style="line;strokeWidth=1;fillColor=none;align=left;verticalAlign=middle;spacingTop=-1;spacingLeft=3;spacingRight=3;rotatable=0;labelPosition=right;points=[];portConstraint=eastwest;" parent="BT-sb1i7F7TTi-nkxCVp-24" vertex="1">
          <mxGeometry y="26" width="160" height="8" as="geometry" />
        </mxCell>
        <mxCell id="BT-sb1i7F7TTi-nkxCVp-27" value="+ main(): void" style="text;strokeColor=none;fillColor=none;align=left;verticalAlign=top;spacingLeft=4;spacingRight=4;overflow=hidden;rotatable=0;points=[[0,0.5],[1,0.5]];portConstraint=eastwest;" parent="BT-sb1i7F7TTi-nkxCVp-24" vertex="1">
          <mxGeometry y="34" width="160" height="26" as="geometry" />
        </mxCell>
        <mxCell id="BT-sb1i7F7TTi-nkxCVp-28" value="AdminMenu" style="swimlane;fontStyle=1;align=center;verticalAlign=top;childLayout=stackLayout;horizontal=1;startSize=26;horizontalStack=0;resizeParent=1;resizeParentMax=0;resizeLast=0;collapsible=1;marginBottom=0;" parent="WIyWlLk6GJQsqaUBKTNV-1" vertex="1">
          <mxGeometry x="-130" y="120" width="160" height="60" as="geometry" />
        </mxCell>
        <mxCell id="BT-sb1i7F7TTi-nkxCVp-30" value="" style="line;strokeWidth=1;fillColor=none;align=left;verticalAlign=middle;spacingTop=-1;spacingLeft=3;spacingRight=3;rotatable=0;labelPosition=right;points=[];portConstraint=eastwest;" parent="BT-sb1i7F7TTi-nkxCVp-28" vertex="1">
          <mxGeometry y="26" width="160" height="8" as="geometry" />
        </mxCell>
        <mxCell id="BT-sb1i7F7TTi-nkxCVp-31" value="+ adminPage(): void" style="text;strokeColor=none;fillColor=none;align=left;verticalAlign=top;spacingLeft=4;spacingRight=4;overflow=hidden;rotatable=0;points=[[0,0.5],[1,0.5]];portConstraint=eastwest;" parent="BT-sb1i7F7TTi-nkxCVp-28" vertex="1">
          <mxGeometry y="34" width="160" height="26" as="geometry" />
        </mxCell>
        <mxCell id="BT-sb1i7F7TTi-nkxCVp-32" value="Table Management" style="swimlane;fontStyle=1;align=center;verticalAlign=top;childLayout=stackLayout;horizontal=1;startSize=26;horizontalStack=0;resizeParent=1;resizeParentMax=0;resizeLast=0;collapsible=1;marginBottom=0;" parent="WIyWlLk6GJQsqaUBKTNV-1" vertex="1">
          <mxGeometry x="-560" y="120" width="360" height="322" as="geometry" />
        </mxCell>
        <mxCell id="BT-sb1i7F7TTi-nkxCVp-33" value="# dbTable: String&#xa;# id: String&#xa;- col: String[]&#xa;- head: ArrayList&lt;String&gt;&#xa;# selectOutPut: Map&lt;String,String&gt;" style="text;strokeColor=none;fillColor=none;align=left;verticalAlign=top;spacingLeft=4;spacingRight=4;overflow=hidden;rotatable=0;points=[[0,0.5],[1,0.5]];portConstraint=eastwest;" parent="BT-sb1i7F7TTi-nkxCVp-32" vertex="1">
          <mxGeometry y="26" width="360" height="88" as="geometry" />
        </mxCell>
        <mxCell id="BT-sb1i7F7TTi-nkxCVp-34" value="" style="line;strokeWidth=1;fillColor=none;align=left;verticalAlign=middle;spacingTop=-1;spacingLeft=3;spacingRight=3;rotatable=0;labelPosition=right;points=[];portConstraint=eastwest;" parent="BT-sb1i7F7TTi-nkxCVp-32" vertex="1">
          <mxGeometry y="114" width="360" height="8" as="geometry" />
        </mxCell>
        <mxCell id="BT-sb1i7F7TTi-nkxCVp-35" value="+ TableOf(dbName: String)&#xa;+ setColNames(col: String[]): void&#xa;+ insertRow(jtTxt: ArrayList&lt;String&gt;): boolean&#xa;+ updateRow(jtTxt: ArrayList&lt;String&gt;, ID:String): boolean&#xa;+ deleteRow(ID: String): boolean&#xa;+ selectRow(ID: String): Map&lt;String,String&gt;&#xa;# convertToList(hashOut: Map&lt;String,String&gt;): ArrayList&lt;String&gt;&#xa;+ getTableIDs(): ArrayList&lt;String&gt;&#xa;+ setupTable(): DefaultTableModel&#xa;+ getTableRowNum(): int&#xa;+ getTableColName(tableName: String): ArrayList&lt;String&gt;&#xa;+ getDateToday(): String&#xa;+ refreshTable(): void&#xa;" style="text;strokeColor=none;fillColor=none;align=left;verticalAlign=top;spacingLeft=4;spacingRight=4;overflow=hidden;rotatable=0;points=[[0,0.5],[1,0.5]];portConstraint=eastwest;" parent="BT-sb1i7F7TTi-nkxCVp-32" vertex="1">
          <mxGeometry y="122" width="360" height="200" as="geometry" />
        </mxCell>
        <mxCell id="BT-sb1i7F7TTi-nkxCVp-36" value="Backup and Import" style="swimlane;fontStyle=1;align=center;verticalAlign=top;childLayout=stackLayout;horizontal=1;startSize=26;horizontalStack=0;resizeParent=1;resizeParentMax=0;resizeLast=0;collapsible=1;marginBottom=0;" parent="WIyWlLk6GJQsqaUBKTNV-1" vertex="1">
          <mxGeometry x="100" y="500" width="160" height="120" as="geometry" />
        </mxCell>
        <mxCell id="BT-sb1i7F7TTi-nkxCVp-37" value="- members: TableOf&#xa;- issBooks: TableOf" style="text;strokeColor=none;fillColor=none;align=left;verticalAlign=top;spacingLeft=4;spacingRight=4;overflow=hidden;rotatable=0;points=[[0,0.5],[1,0.5]];portConstraint=eastwest;" parent="BT-sb1i7F7TTi-nkxCVp-36" vertex="1">
          <mxGeometry y="26" width="160" height="44" as="geometry" />
        </mxCell>
        <mxCell id="BT-sb1i7F7TTi-nkxCVp-38" value="" style="line;strokeWidth=1;fillColor=none;align=left;verticalAlign=middle;spacingTop=-1;spacingLeft=3;spacingRight=3;rotatable=0;labelPosition=right;points=[];portConstraint=eastwest;" parent="BT-sb1i7F7TTi-nkxCVp-36" vertex="1">
          <mxGeometry y="70" width="160" height="8" as="geometry" />
        </mxCell>
        <mxCell id="BT-sb1i7F7TTi-nkxCVp-39" value="+ manDB(): void&#xa;+ importOpts(): void" style="text;strokeColor=none;fillColor=none;align=left;verticalAlign=top;spacingLeft=4;spacingRight=4;overflow=hidden;rotatable=0;points=[[0,0.5],[1,0.5]];portConstraint=eastwest;" parent="BT-sb1i7F7TTi-nkxCVp-36" vertex="1">
          <mxGeometry y="78" width="160" height="42" as="geometry" />
        </mxCell>
        <mxCell id="BT-sb1i7F7TTi-nkxCVp-40" value="IssuedBooks" style="swimlane;fontStyle=1;align=center;verticalAlign=top;childLayout=stackLayout;horizontal=1;startSize=26;horizontalStack=0;resizeParent=1;resizeParentMax=0;resizeLast=0;collapsible=1;marginBottom=0;" parent="WIyWlLk6GJQsqaUBKTNV-1" vertex="1">
          <mxGeometry x="-130" y="500" width="170" height="160" as="geometry" />
        </mxCell>
        <mxCell id="BT-sb1i7F7TTi-nkxCVp-41" value="- issueBooksColumn: String[]" style="text;strokeColor=none;fillColor=none;align=left;verticalAlign=top;spacingLeft=4;spacingRight=4;overflow=hidden;rotatable=0;points=[[0,0.5],[1,0.5]];portConstraint=eastwest;" parent="BT-sb1i7F7TTi-nkxCVp-40" vertex="1">
          <mxGeometry y="26" width="170" height="26" as="geometry" />
        </mxCell>
        <mxCell id="BT-sb1i7F7TTi-nkxCVp-42" value="" style="line;strokeWidth=1;fillColor=none;align=left;verticalAlign=middle;spacingTop=-1;spacingLeft=3;spacingRight=3;rotatable=0;labelPosition=right;points=[];portConstraint=eastwest;" parent="BT-sb1i7F7TTi-nkxCVp-40" vertex="1">
          <mxGeometry y="52" width="170" height="8" as="geometry" />
        </mxCell>
        <mxCell id="BT-sb1i7F7TTi-nkxCVp-43" value="+ ManageIssBooks()&#xa;+ issueBook(): void&#xa;+ returnBook(): void&#xa;+ remIssBook(): void&#xa;+ showTable(): JPanel&#xa;+getPanel(): JPanel" style="text;strokeColor=none;fillColor=none;align=left;verticalAlign=top;spacingLeft=4;spacingRight=4;overflow=hidden;rotatable=0;points=[[0,0.5],[1,0.5]];portConstraint=eastwest;" parent="BT-sb1i7F7TTi-nkxCVp-40" vertex="1">
          <mxGeometry y="60" width="170" height="100" as="geometry" />
        </mxCell>
        <mxCell id="BT-sb1i7F7TTi-nkxCVp-44" value="Members" style="swimlane;fontStyle=1;align=center;verticalAlign=top;childLayout=stackLayout;horizontal=1;startSize=26;horizontalStack=0;resizeParent=1;resizeParentMax=0;resizeLast=0;collapsible=1;marginBottom=0;" parent="WIyWlLk6GJQsqaUBKTNV-1" vertex="1">
          <mxGeometry x="-340" y="500" width="160" height="160" as="geometry" />
        </mxCell>
        <mxCell id="BT-sb1i7F7TTi-nkxCVp-45" value="- membersColumn: String[]" style="text;strokeColor=none;fillColor=none;align=left;verticalAlign=top;spacingLeft=4;spacingRight=4;overflow=hidden;rotatable=0;points=[[0,0.5],[1,0.5]];portConstraint=eastwest;" parent="BT-sb1i7F7TTi-nkxCVp-44" vertex="1">
          <mxGeometry y="26" width="160" height="26" as="geometry" />
        </mxCell>
        <mxCell id="BT-sb1i7F7TTi-nkxCVp-46" value="" style="line;strokeWidth=1;fillColor=none;align=left;verticalAlign=middle;spacingTop=-1;spacingLeft=3;spacingRight=3;rotatable=0;labelPosition=right;points=[];portConstraint=eastwest;" parent="BT-sb1i7F7TTi-nkxCVp-44" vertex="1">
          <mxGeometry y="52" width="160" height="8" as="geometry" />
        </mxCell>
        <mxCell id="BT-sb1i7F7TTi-nkxCVp-47" value="+ ManageMembers()&#xa;+ addMember(): void&#xa;+ editMember(): void&#xa;+ removeMember(): void&#xa;+ showTable(): JPanel&#xa;+getPanel(): JPanel" style="text;strokeColor=none;fillColor=none;align=left;verticalAlign=top;spacingLeft=4;spacingRight=4;overflow=hidden;rotatable=0;points=[[0,0.5],[1,0.5]];portConstraint=eastwest;" parent="BT-sb1i7F7TTi-nkxCVp-44" vertex="1">
          <mxGeometry y="60" width="160" height="100" as="geometry" />
        </mxCell>
        <mxCell id="BT-sb1i7F7TTi-nkxCVp-67" value="Extends" style="endArrow=block;endSize=16;endFill=0;html=1;rounded=0;exitX=0.5;exitY=0;exitDx=0;exitDy=0;" parent="WIyWlLk6GJQsqaUBKTNV-1" source="BT-sb1i7F7TTi-nkxCVp-12" target="BT-sb1i7F7TTi-nkxCVp-32" edge="1">
          <mxGeometry width="160" relative="1" as="geometry">
            <mxPoint x="-560" y="440" as="sourcePoint" />
            <mxPoint x="-400" y="440" as="targetPoint" />
          </mxGeometry>
        </mxCell>
        <mxCell id="BT-sb1i7F7TTi-nkxCVp-68" value="Extends" style="endArrow=block;endSize=16;endFill=0;html=1;rounded=0;" parent="WIyWlLk6GJQsqaUBKTNV-1" source="BT-sb1i7F7TTi-nkxCVp-32" target="BT-sb1i7F7TTi-nkxCVp-16" edge="1">
          <mxGeometry width="160" relative="1" as="geometry">
            <mxPoint x="-90" y="430" as="sourcePoint" />
            <mxPoint x="70" y="430" as="targetPoint" />
          </mxGeometry>
        </mxCell>
        <mxCell id="BT-sb1i7F7TTi-nkxCVp-69" value="Extends" style="endArrow=block;endSize=16;endFill=0;html=1;rounded=0;exitX=0.5;exitY=0;exitDx=0;exitDy=0;" parent="WIyWlLk6GJQsqaUBKTNV-1" source="BT-sb1i7F7TTi-nkxCVp-36" target="BT-sb1i7F7TTi-nkxCVp-32" edge="1">
          <mxGeometry width="160" relative="1" as="geometry">
            <mxPoint x="140" y="440" as="sourcePoint" />
            <mxPoint x="300" y="440" as="targetPoint" />
          </mxGeometry>
        </mxCell>
        <mxCell id="BT-sb1i7F7TTi-nkxCVp-70" value="Extends" style="endArrow=block;endSize=16;endFill=0;html=1;rounded=0;exitX=0.5;exitY=0;exitDx=0;exitDy=0;" parent="WIyWlLk6GJQsqaUBKTNV-1" source="BT-sb1i7F7TTi-nkxCVp-40" target="BT-sb1i7F7TTi-nkxCVp-32" edge="1">
          <mxGeometry width="160" relative="1" as="geometry">
            <mxPoint x="150" y="450" as="sourcePoint" />
            <mxPoint x="310" y="450" as="targetPoint" />
          </mxGeometry>
        </mxCell>
        <mxCell id="BT-sb1i7F7TTi-nkxCVp-71" value="Extends" style="endArrow=block;endSize=16;endFill=0;html=1;rounded=0;exitX=0.5;exitY=0;exitDx=0;exitDy=0;" parent="WIyWlLk6GJQsqaUBKTNV-1" source="BT-sb1i7F7TTi-nkxCVp-44" target="BT-sb1i7F7TTi-nkxCVp-32" edge="1">
          <mxGeometry width="160" relative="1" as="geometry">
            <mxPoint x="160" y="460" as="sourcePoint" />
            <mxPoint x="320" y="460" as="targetPoint" />
          </mxGeometry>
        </mxCell>
        <mxCell id="BT-sb1i7F7TTi-nkxCVp-72" value="Initialize Database" style="swimlane;fontStyle=1;align=center;verticalAlign=top;childLayout=stackLayout;horizontal=1;startSize=26;horizontalStack=0;resizeParent=1;resizeParentMax=0;resizeLast=0;collapsible=1;marginBottom=0;" parent="WIyWlLk6GJQsqaUBKTNV-1" vertex="1">
          <mxGeometry x="-130" y="-45" width="160" height="70" as="geometry" />
        </mxCell>
        <mxCell id="BT-sb1i7F7TTi-nkxCVp-73" value="" style="line;strokeWidth=1;fillColor=none;align=left;verticalAlign=middle;spacingTop=-1;spacingLeft=3;spacingRight=3;rotatable=0;labelPosition=right;points=[];portConstraint=eastwest;" parent="BT-sb1i7F7TTi-nkxCVp-72" vertex="1">
          <mxGeometry y="26" width="160" height="8" as="geometry" />
        </mxCell>
        <mxCell id="BT-sb1i7F7TTi-nkxCVp-74" value="+ initializeDB(): void&#xa;+ redirectToAdPage(): void" style="text;strokeColor=none;fillColor=none;align=left;verticalAlign=top;spacingLeft=4;spacingRight=4;overflow=hidden;rotatable=0;points=[[0,0.5],[1,0.5]];portConstraint=eastwest;" parent="BT-sb1i7F7TTi-nkxCVp-72" vertex="1">
          <mxGeometry y="34" width="160" height="36" as="geometry" />
        </mxCell>
        <mxCell id="BT-sb1i7F7TTi-nkxCVp-75" value="Extends" style="endArrow=block;endSize=16;endFill=0;html=1;rounded=0;" parent="WIyWlLk6GJQsqaUBKTNV-1" source="BT-sb1i7F7TTi-nkxCVp-72" target="BT-sb1i7F7TTi-nkxCVp-16" edge="1">
          <mxGeometry width="160" relative="1" as="geometry">
            <mxPoint x="-130" y="140" as="sourcePoint" />
            <mxPoint x="-130" y="60" as="targetPoint" />
          </mxGeometry>
        </mxCell>
        <mxCell id="BT-sb1i7F7TTi-nkxCVp-76" value="Use" style="endArrow=open;endSize=12;dashed=1;html=1;rounded=0;" parent="WIyWlLk6GJQsqaUBKTNV-1" source="BT-sb1i7F7TTi-nkxCVp-28" target="BT-sb1i7F7TTi-nkxCVp-72" edge="1">
          <mxGeometry width="160" relative="1" as="geometry">
            <mxPoint x="-60" y="310" as="sourcePoint" />
            <mxPoint x="100" y="310" as="targetPoint" />
          </mxGeometry>
        </mxCell>
        <mxCell id="BT-sb1i7F7TTi-nkxCVp-77" value="1" style="endArrow=open;html=1;endSize=12;startArrow=diamondThin;startSize=14;startFill=0;edgeStyle=orthogonalEdgeStyle;align=left;verticalAlign=bottom;rounded=0;" parent="WIyWlLk6GJQsqaUBKTNV-1" source="BT-sb1i7F7TTi-nkxCVp-32" target="BT-sb1i7F7TTi-nkxCVp-28" edge="1">
          <mxGeometry x="-1" y="3" relative="1" as="geometry">
            <mxPoint x="130" y="100" as="sourcePoint" />
            <mxPoint x="290" y="100" as="targetPoint" />
          </mxGeometry>
        </mxCell>
        <mxCell id="BT-sb1i7F7TTi-nkxCVp-78" value="" style="endArrow=block;endFill=1;html=1;edgeStyle=orthogonalEdgeStyle;align=left;verticalAlign=top;rounded=0;" parent="WIyWlLk6GJQsqaUBKTNV-1" source="BT-sb1i7F7TTi-nkxCVp-28" target="BT-sb1i7F7TTi-nkxCVp-0" edge="1">
          <mxGeometry x="-1" relative="1" as="geometry">
            <mxPoint x="150" y="110" as="sourcePoint" />
            <mxPoint x="310" y="110" as="targetPoint" />
          </mxGeometry>
        </mxCell>
        <mxCell id="BT-sb1i7F7TTi-nkxCVp-81" value="" style="endArrow=block;endFill=1;html=1;edgeStyle=orthogonalEdgeStyle;align=left;verticalAlign=top;rounded=0;" parent="WIyWlLk6GJQsqaUBKTNV-1" source="BT-sb1i7F7TTi-nkxCVp-0" target="BT-sb1i7F7TTi-nkxCVp-24" edge="1">
          <mxGeometry x="-1" relative="1" as="geometry">
            <mxPoint x="60" y="380" as="sourcePoint" />
            <mxPoint x="220" y="380" as="targetPoint" />
          </mxGeometry>
        </mxCell>
        <mxCell id="BT-sb1i7F7TTi-nkxCVp-82" value="1" style="edgeLabel;resizable=0;html=1;align=left;verticalAlign=bottom;" parent="BT-sb1i7F7TTi-nkxCVp-81" connectable="0" vertex="1">
          <mxGeometry x="-1" relative="1" as="geometry" />
        </mxCell>
      </root>
    </mxGraphModel>
  </diagram>
</mxfile>
